<?xml version="1.0" encoding="UTF-8" standalone="no"?>
<svg
   xmlns:dc="http://purl.org/dc/elements/1.1/"
   xmlns:cc="http://creativecommons.org/ns#"
   xmlns:rdf="http://www.w3.org/1999/02/22-rdf-syntax-ns#"
   xmlns:svg="http://www.w3.org/2000/svg"
   xmlns="http://www.w3.org/2000/svg"
   xmlns:sodipodi="http://sodipodi.sourceforge.net/DTD/sodipodi-0.dtd"
   xmlns:inkscape="http://www.inkscape.org/namespaces/inkscape"
   id="Layer_1"
   data-name="Layer 1"
   viewBox="0 0 157.76 92.78"
   version="1.1"
   sodipodi:docname="logo-header.svg"
   inkscape:version="0.92.3 (2405546, 2018-03-11)">
  <metadata
     id="metadata4754">
    <rdf:RDF>
      <cc:Work
         rdf:about="">
        <dc:format>image/svg+xml</dc:format>
        <dc:type
           rdf:resource="http://purl.org/dc/dcmitype/StillImage" />
        <dc:title>awl-logo-small</dc:title>
      </cc:Work>
    </rdf:RDF>
  </metadata>
  <sodipodi:namedview
     pagecolor="#ffffff"
     bordercolor="#666666"
     borderopacity="1"
     objecttolerance="10"
     gridtolerance="10"
     guidetolerance="10"
     inkscape:pageopacity="0"
     inkscape:pageshadow="2"
     inkscape:window-width="1719"
     inkscape:window-height="1390"
     id="namedview4752"
     showgrid="false"
     inkscape:zoom="4.4463105"
     inkscape:cx="98.819512"
     inkscape:cy="79.018127"
     inkscape:window-x="0"
     inkscape:window-y="0"
     inkscape:window-maximized="0"
     inkscape:current-layer="Layer_1" />
  <defs
     id="defs4595">
    <style
       id="style4593">.cls-1{fill:#fff;}.cls-2{fill:#b7b7b7;}.cls-3{fill:#1a1819;}.cls-4,.cls-5{fill:#286090;}.cls-4{stroke:#fff;stroke-miterlimit:10;stroke-width:2px;}</style>
    <clipPath
       clipPathUnits="userSpaceOnUse"
       id="clipPath5091">
      <g
         id="use5093"
         inkscape:label="Clip">
        <rect
           class="cls-4"
           x="49.268848"
           y="42.550213"
           width="30.558107"
           height="19.206972"
           rx="2.45802"
           ry="2.45802"
           id="rect5095"
           style="fill:#286090;stroke:#ffffff;stroke-width:0.98320806px;stroke-miterlimit:10" />
        <path
           class="cls-1"
           d="m 58.624064,56.67891 -1.789442,1.789436 -1.774679,-1.789436 0.796399,-0.796399 v -1.632125 h -1.720616 v 1.632125 l 0.796399,0.796399 -1.789442,1.789436 -1.774695,-1.789436 0.796399,-0.796399 v -7.206915 l 2.949635,-2.920129 2.713643,2.728403 v 7.398641 z M 55.856342,52.195481 V 49.63914 l -1.720616,-1.720614 v 4.276955 z"
           id="path5097"
           inkscape:connector-curvature="0"
           style="fill:#ffffff;stroke-width:0.49160403" />
        <path
           class="cls-1"
           d="m 69.395109,47.544906 -0.796399,0.796399 v 7.418304 l -2.708733,2.708737 -1.828774,-1.828765 -1.858254,1.828765 -2.949635,-2.920126 v -7.206915 l -0.796399,-0.796399 1.774695,-1.789439 1.789442,1.789439 -0.796399,0.796399 v 7.959068 l 1.720615,-1.720613 v -6.238455 l -0.786562,-0.796399 1.77468,-1.789439 1.789442,1.789439 -0.796399,0.796399 v 7.959068 l 1.720615,-1.720613 v -6.238455 l -0.796399,-0.796399 1.789443,-1.789439 z"
           id="path5099"
           inkscape:connector-curvature="0"
           style="fill:#ffffff;stroke-width:0.49160403" />
        <path
           class="cls-1"
           d="m 77.034637,47.544906 -0.796399,0.796399 -1.873017,3.770603 1.814026,3.770603 0.796399,0.796399 -1.789442,1.789436 -1.769769,-1.789436 0.796399,-0.796399 -0.850478,-1.759943 -0.879974,1.759943 0.796399,0.796399 -1.779605,1.789436 -1.769769,-1.789436 0.786562,-0.796399 1.873017,-3.770603 -1.814026,-3.770603 -0.796399,-0.796399 1.789442,-1.789439 1.774695,1.789439 -0.796399,0.796399 0.835715,1.759943 0.879974,-1.759943 -0.796399,-0.796399 1.789442,-1.789439 z"
           id="path5101"
           inkscape:connector-curvature="0"
           style="fill:#ffffff;stroke-width:0.49160403" />
      </g>
    </clipPath>
  </defs>
  <title
     id="title4597">awl-logo-small</title>
  <g
     id="g684"
     transform="matrix(0.01165908,0,0,-0.01165908,57.933585,87.850066)">
    <path
       d="M 305.828,675.332 C 226.672,620.449 201.078,568.629 170.152,511.711 119.672,418.121 175.566,403.859 337.75,407.961 422.055,290.43 471.02,307.84 549.258,391.988 c 107.73,-65.668 182.32,-74.136 175.582,39.91 2.39,78.93 -52.11,153.813 -123.707,227.473 l -295.305,15.961"
       style="fill:#f46f30;fill-opacity:1;fill-rule:nonzero;stroke:none"
       id="path686"
       inkscape:connector-curvature="0" />
    <path
       d="m 1963.48,675.66 c 79.15,-54.879 104.74,-106.691 135.67,-163.621 50.48,-93.578 -5.42,-107.848 -167.61,-103.758 -84.3,-117.511 -133.26,-100.109 -211.49,-15.949 -107.73,-65.672 -182.33,-74.152 -175.59,39.898 -2.38,78.942 52.11,153.809 123.7,227.461 l 295.32,15.969"
       style="fill:#f46f30;fill-opacity:1;fill-rule:nonzero;stroke:none"
       id="path688"
       inkscape:connector-curvature="0" />
    <path
       d="m 1126.25,3464.94 c -297.289,0.18 -505.605,-188.56 -559.492,-323.7 -132.035,-242.1 49.48,-481.72 24.199,-545.41 C 536.41,2429.7 466.207,2464.58 218.617,2154.36 65.0352,1958.65 -39.9414,1686.4 14.5977,1549.92 21.1094,1513.69 235.492,1713.7 390.219,1847.45 393.375,1655.32 29.5508,839.789 259.605,559.57 372.758,364.801 1596.6,324.328 2008.7,559.57 c 277.92,147.66 -149.57,1095.75 -146.42,1287.88 154.73,-133.75 338.25,-288.93 344.76,-252.7 54.54,136.48 -19.58,363.9 -173.16,559.61 -247.59,310.22 -309.89,291.15 -364.43,457.27 -25.29,63.69 148.32,287.51 16.29,529.61 -53.9,135.17 -280.48,323.94 -559.49,323.7"
       style="fill:#050606;fill-opacity:1;fill-rule:nonzero;stroke:none"
       id="path690"
       inkscape:connector-curvature="0" />
    <path
       d="m 591.902,2809.63 c 0,-91.23 37.516,-173.61 97.75,-232.89 -96.547,-132.77 -155.457,-309.67 -155.457,-503.95 0,-410.77 -937.207,-1585.938 592.055,-1599.591 1444.81,-12.91 592.06,1184.341 592.06,1599.591 0,194.28 -58.92,371.18 -155.46,503.95 60.23,59.28 97.75,141.66 97.75,232.88 0,180.66 -212.18,314.53 -538.3,311.34 -326.116,-3.19 -530.398,-130.68 -530.398,-311.33"
       style="fill:#ffffff;fill-opacity:1;fill-rule:nonzero;stroke:none"
       id="path692"
       inkscape:connector-curvature="0" />
    <path
       d="m 916.355,2718.3 c -94.578,-87.46 100.235,-262.74 195.265,-262.43 89.55,-8.29 320.49,174.97 199.79,262.43 -26.29,42.95 -365.535,40.87 -395.055,0"
       style="fill:#f46f30;fill-opacity:1;fill-rule:nonzero;stroke:none"
       id="path694"
       inkscape:connector-curvature="0" />
    <path
       d="m 960.406,2863.84 c 0,-19.25 -15.605,-34.86 -34.859,-34.86 -19.254,0 -34.863,15.61 -34.863,34.86 0,19.25 15.609,34.86 34.863,34.86 19.254,0 34.859,-15.61 34.859,-34.86"
       style="fill:#231f20;fill-opacity:1;fill-rule:nonzero;stroke:none"
       id="path696"
       inkscape:connector-curvature="0" />
    <path
       d="m 1331.55,2863.84 c 0,-19.25 -15.61,-34.86 -34.87,-34.86 -19.24,0 -34.85,15.61 -34.85,34.86 0,19.25 15.61,34.86 34.85,34.86 19.26,0 34.87,-15.61 34.87,-34.86"
       style="fill:#231f20;fill-opacity:1;fill-rule:nonzero;stroke:none"
       id="path698"
       inkscape:connector-curvature="0" />
    <path
       d="m 1928.67,1619.09 c 0,0 -1509.1,-59.33 -1611.811,7.26 73.36,221.1 73.36,221.1 73.36,221.1 0,0 -143.422,175.74 -179.5,322.7 148.367,201.12 218.984,186.25 380.238,441.48 0,0 -88.613,-310.94 497.753,-326.11 610.83,-15.8 580.74,326.11 580.74,326.11 0,0 246.77,-340.7 380.23,-457.27 -171.59,-306.91 -168.42,-350.8 -168.42,-350.8 l 47.41,-184.47"
       style="fill:#fbbc09;fill-opacity:1;fill-rule:evenodd;stroke:none"
       id="path700"
       inkscape:connector-curvature="0" />
    <path
       d="M 1395.3,95.5508 C 1092.91,-77.8086 707.227,26.8086 533.867,329.199 360.52,631.609 465.121,1017.29 767.535,1190.64 1069.93,1364.01 1455.61,1259.39 1628.96,956.988 1802.32,654.578 1697.71,268.91 1395.3,95.5508"
       style="fill:#ffffff;fill-opacity:1;fill-rule:nonzero;stroke:none"
       id="path702"
       inkscape:connector-curvature="0" />
    <path
       d="m 1080.83,1262.5 c -107.385,0 -213.685,-28.4 -307.4,-82.14 C 477.18,1010.54 374.324,631.359 544.145,335.102 654.262,143.031 860.359,23.6992 1082,23.6992 c 107.38,0 213.69,28.4024 307.41,82.1288 296.25,169.832 399.11,549.012 229.28,845.262 -110.12,192.08 -316.21,311.41 -537.86,311.41 z M 1082,0 C 851.887,0 637.91,123.891 523.586,323.309 347.262,630.91 454.055,1024.6 761.637,1200.93 c 97.308,55.77 207.679,85.26 319.193,85.26 230.12,0 444.09,-123.89 558.42,-323.311 C 1815.58,655.301 1708.78,261.602 1401.2,85.2695 1303.89,29.4883 1193.52,0 1082,0"
       style="fill:#fbbc09;fill-opacity:1;fill-rule:nonzero;stroke:none"
       id="path704"
       inkscape:connector-curvature="0" />
    <path
       d="m 475.641,461.539 -4.395,23.293 c 2.926,0.547 296.32,57.047 584.074,204.867 287.93,147.93 507.82,355.251 510.01,357.331 l 16.32,-17.19 C 1579.43,1027.75 1357.08,818.078 1066.16,668.621 775.234,519.16 478.605,462.09 475.641,461.539"
       style="fill:#fbbc09;fill-opacity:1;fill-rule:nonzero;stroke:none"
       id="path706"
       inkscape:connector-curvature="0" />
    <path
       d="m 482.285,411.828 -4.859,23.203 c 3.094,0.649 313.058,66.578 600.944,214.469 287.93,147.93 507.82,355.25 510,357.33 l 16.32,-17.189 C 1602.48,987.539 1380.12,777.859 1089.21,628.422 798.375,479.02 485.41,412.488 482.285,411.828"
       style="fill:#fbbc09;fill-opacity:1;fill-rule:nonzero;stroke:none"
       id="path708"
       inkscape:connector-curvature="0" />
    <path
       d="m 507.582,367.711 -4.855,23.187 c 3.093,0.653 313.066,66.571 600.953,214.461 287.92,147.922 507.8,355.27 510,357.34 l 16.31,-17.187 C 1627.78,943.41 1405.42,733.738 1114.51,584.289 823.688,434.879 510.715,368.352 507.582,367.711"
       style="fill:#fbbc09;fill-opacity:1;fill-rule:nonzero;stroke:none"
       id="path710"
       inkscape:connector-curvature="0" />
    <path
       d="m 536.293,317.609 -4.855,23.192 c 3.093,0.66 313.066,66.59 600.952,214.48 287.92,147.918 507.82,355.258 510,357.328 l 16.32,-17.187 C 1656.5,893.32 1434.13,683.641 1143.23,534.199 852.398,384.789 539.426,318.27 536.293,317.609"
       style="fill:#fbbc09;fill-opacity:1;fill-rule:nonzero;stroke:none"
       id="path712"
       inkscape:connector-curvature="0" />
    <path
       d="m 565.016,267.531 -4.856,23.188 c 3.086,0.64 313.055,66.562 600.94,214.472 287.93,147.93 507.82,355.25 510,357.329 l 16.32,-17.18 C 1685.21,843.23 1462.85,633.559 1171.94,484.102 881.109,334.699 568.141,268.18 565.016,267.531"
       style="fill:#fbbc09;fill-opacity:1;fill-rule:nonzero;stroke:none"
       id="path714"
       inkscape:connector-curvature="0" />
    <path
       d="m 605.234,219.961 -4.843,23.219 c 2.984,0.609 301.547,64.019 589.429,211.91 287.91,147.93 494.88,343.351 496.95,345.32 l 16.33,-17.172 c -2.08,-2 -211.53,-199.769 -502.45,-349.226 C 909.824,284.602 608.254,220.602 605.234,219.961"
       style="fill:#fbbc09;fill-opacity:1;fill-rule:nonzero;stroke:none"
       id="path716"
       inkscape:connector-curvature="0" />
    <path
       d="m 643.031,179.25 -4.265,23.32 c 2.882,0.532 292.05,54.61 579.774,202.418 287.77,147.864 477.19,336.434 479.07,338.313 l 16.8,-16.711 C 1712.5,724.672 1520.43,533.449 1229.38,383.922 938.406,234.441 645.953,179.789 643.031,179.25"
       style="fill:#fbbc09;fill-opacity:1;fill-rule:nonzero;stroke:none"
       id="path718"
       inkscape:connector-curvature="0" />
    <path
       d="m 1280.08,816.012 c -114.82,214.148 -150.25,451.358 -150.6,453.718 l 23.46,3.41 c 0.34,-2.33 35.24,-235.57 148.03,-445.929 l -20.89,-11.199"
       style="fill:#fbbc09;fill-opacity:1;fill-rule:nonzero;stroke:none"
       id="path720"
       inkscape:connector-curvature="0" />
    <path
       d="m 1324.13,831.75 c -114.85,214.18 -145.6,428.22 -145.9,430.36 l 23.47,3.27 c 0.3,-2.1 30.56,-212.13 143.31,-422.431 l -20.88,-11.199"
       style="fill:#fbbc09;fill-opacity:1;fill-rule:nonzero;stroke:none"
       id="path722"
       inkscape:connector-curvature="0" />
    <path
       d="m 1357.9,851.121 c -115.02,214.489 -130.78,402.969 -130.93,404.839 l 23.63,1.84 c 0.15,-1.83 15.66,-185.62 128.18,-395.48 l -20.88,-11.199"
       style="fill:#fbbc09;fill-opacity:1;fill-rule:nonzero;stroke:none"
       id="path724"
       inkscape:connector-curvature="0" />
    <path
       d="M 1238.96,792.441 C 1124.23,1006.41 1076.4,1269.55 1075.93,1272.19 l 23.33,4.16 c 0.47,-2.61 47.69,-262.14 160.59,-472.721 l -20.89,-11.188"
       style="fill:#fbbc09;fill-opacity:1;fill-rule:nonzero;stroke:none"
       id="path726"
       inkscape:connector-curvature="0" />
    <path
       d="m 1198.12,769.031 c -114.72,213.91 -169.13,498.929 -169.66,501.779 l 23.29,4.39 c 0.54,-2.82 54.3,-284.341 167.25,-494.981 l -20.88,-11.188"
       style="fill:#fbbc09;fill-opacity:1;fill-rule:nonzero;stroke:none"
       id="path728"
       inkscape:connector-curvature="0" />
    <path
       d="m 1157.27,745.59 c -114.82,214.129 -160.555,514.42 -161.004,517.43 l 23.444,3.5 c 0.45,-2.98 45.61,-299.27 158.44,-509.719 l -20.88,-11.211"
       style="fill:#fbbc09;fill-opacity:1;fill-rule:nonzero;stroke:none"
       id="path730"
       inkscape:connector-curvature="0" />
    <path
       d="m 1116.42,722.18 c -114.83,214.152 -161.518,531.17 -161.971,534.35 l 23.461,3.38 c 0.453,-3.13 46.56,-316.109 159.39,-526.519 l -20.88,-11.211"
       style="fill:#fbbc09;fill-opacity:1;fill-rule:nonzero;stroke:none"
       id="path732"
       inkscape:connector-curvature="0" />
    <path
       d="M 1080.21,701.422 C 965.414,915.48 911.273,1245.38 910.742,1248.69 l 23.403,3.77 c 0.523,-3.27 54.058,-329.312 166.945,-539.839 l -20.88,-11.199"
       style="fill:#fbbc09;fill-opacity:1;fill-rule:nonzero;stroke:none"
       id="path734"
       inkscape:connector-curvature="0" />
    <path
       d="M 1039.35,678.012 C 924.551,892.09 870.027,1236.47 869.496,1239.92 l 23.414,3.64 c 0.531,-3.41 54.461,-343.861 167.33,-554.361 l -20.89,-11.187"
       style="fill:#fbbc09;fill-opacity:1;fill-rule:nonzero;stroke:none"
       id="path736"
       inkscape:connector-curvature="0" />
    <path
       d="m 1612.2,293.57 c -7.1,1.469 -48.79,18.989 -172.38,221.059 L 1460.05,527 c 117.84,-192.68 156.51,-209.879 158.09,-210.52 -0.77,0.309 -1.17,0.321 -1.17,0.321 l -4.77,-23.231"
       style="fill:#fbbc09;fill-opacity:1;fill-rule:nonzero;stroke:none"
       id="path738"
       inkscape:connector-curvature="0" />
    <path
       d="m 1630.04,337.262 c -4.27,4.078 -105.18,101.09 -151.29,202.117 l 21.57,9.84 c 44.23,-96.91 145.08,-193.848 146.09,-194.809 l -16.37,-17.148"
       style="fill:#fbbc09;fill-opacity:1;fill-rule:nonzero;stroke:none"
       id="path740"
       inkscape:connector-curvature="0" />
    <path
       d="m 1645.54,368.738 c -30.97,30.492 -93.17,116.461 -136.4,195.813 l 20.82,11.347 c 45.44,-83.449 107.02,-165.468 132.21,-190.277 l -16.63,-16.883"
       style="fill:#fbbc09;fill-opacity:1;fill-rule:nonzero;stroke:none"
       id="path742"
       inkscape:connector-curvature="0" />
    <path
       d="m 1581.95,253.18 c -5.14,2.058 -53.91,25.961 -179.49,231.32 l 20.23,12.359 c 120.62,-197.25 166.54,-220.918 168.43,-221.828 l -9.17,-21.851"
       style="fill:#fbbc09;fill-opacity:1;fill-rule:nonzero;stroke:none"
       id="path744"
       inkscape:connector-curvature="0" />
    <path
       d="m 1551.22,217.379 c -2.48,1.351 -62.26,35.48 -189.61,243.711 l 20.23,12.359 c 124.05,-202.859 180.15,-234.937 180.7,-235.25 l -11.32,-20.82"
       style="fill:#fbbc09;fill-opacity:1;fill-rule:nonzero;stroke:none"
       id="path746"
       inkscape:connector-curvature="0" />
    <path
       d="m 1521.24,185.852 c -2.93,1.687 -73.21,43.707 -200.48,251.808 l 20.23,12.36 c 123.04,-201.188 191.47,-243.27 192.15,-243.668 l -11.9,-20.5"
       style="fill:#fbbc09;fill-opacity:1;fill-rule:nonzero;stroke:none"
       id="path748"
       inkscape:connector-curvature="0" />
    <path
       d="m 1491.04,157.469 c -3.37,1.902 -83.83,48.613 -211.12,256.781 l 20.22,12.359 c 124.1,-202.918 201.73,-248.027 202.49,-248.461 l -11.59,-20.679"
       style="fill:#fbbc09;fill-opacity:1;fill-rule:nonzero;stroke:none"
       id="path750"
       inkscape:connector-curvature="0" />
    <path
       d="m 1457.19,130.559 c -3.46,2.152 -86.33,55 -213.49,262.929 l 20.22,12.364 c 124.25,-203.161 204.96,-254.653 205.77,-255.141 l -12.5,-20.152"
       style="fill:#fbbc09;fill-opacity:1;fill-rule:nonzero;stroke:none"
       id="path752"
       inkscape:connector-curvature="0" />
    <path
       d="m 1410.63,104.531 c -3.23,2.278 -80.79,57.91 -207.79,265.539 l 20.22,12.371 c 123.78,-202.359 200.44,-257.953 201.19,-258.5 l -13.62,-19.41"
       style="fill:#fbbc09;fill-opacity:1;fill-rule:nonzero;stroke:none"
       id="path754"
       inkscape:connector-curvature="0" />
    <path
       d="m 1540.07,1001.43 c -185.1,183.17 -294.58,195.19 -295.65,195.29 l 1.98,23.62 c 4.72,-0.39 117.89,-11.61 310.34,-202.06 l -16.67,-16.85"
       style="fill:#fbbc09;fill-opacity:1;fill-rule:nonzero;stroke:none"
       id="path756"
       inkscape:connector-curvature="0" />
    <path
       d="M 1502.42,979.941 C 1358.41,1124.31 1251.56,1154.84 1250.5,1155.13 l 6.21,22.87 c 4.56,-1.23 113.46,-31.91 262.49,-181.32 l -16.78,-16.739"
       style="fill:#fbbc09;fill-opacity:1;fill-rule:nonzero;stroke:none"
       id="path758"
       inkscape:connector-curvature="0" />
    <path
       d="m 1475.57,954.57 c -100.92,109 -215.46,160.33 -216.6,160.83 l 9.57,21.69 c 4.86,-2.15 120.21,-53.86 224.42,-166.399 l -17.39,-16.121"
       style="fill:#fbbc09;fill-opacity:1;fill-rule:nonzero;stroke:none"
       id="path760"
       inkscape:connector-curvature="0" />
    <path
       d="m 1444.92,929.621 c -107.06,115.799 -167.73,129.439 -168.33,129.549 l 4.48,23.28 c 2.71,-0.5 67.64,-13.85 181.25,-136.731 l -17.4,-16.098"
       style="fill:#fbbc09;fill-opacity:1;fill-rule:nonzero;stroke:none"
       id="path762"
       inkscape:connector-curvature="0" />
    <path
       d="m 1415.13,911.391 c -87.93,79.73 -122.86,95.479 -123.2,95.629 l 9.26,21.82 c 1.5,-0.62 37.75,-16.37 129.85,-99.879 l -15.91,-17.57"
       style="fill:#fbbc09;fill-opacity:1;fill-rule:nonzero;stroke:none"
       id="path764"
       inkscape:connector-curvature="0" />
    <path
       d="m 1383.74,893.961 c -29.36,29.027 -41.46,26.668 -41.58,26.617 0.03,0.012 0.66,0.192 1.76,1.094 l -14.95,18.398 c 5.39,4.371 26.47,15.2 71.43,-29.261 l -16.66,-16.848"
       style="fill:#fbbc09;fill-opacity:1;fill-rule:nonzero;stroke:none"
       id="path766"
       inkscape:connector-curvature="0" />
    <path
       d="M 967.043,870.082 C 803.438,884.309 574.906,998.59 565.266,1003.44 l 10.656,21.17 c 2.32,-1.17 234.137,-117.09 393.172,-130.911 l -2.051,-23.617"
       style="fill:#fbbc09;fill-opacity:1;fill-rule:nonzero;stroke:none"
       id="path768"
       inkscape:connector-curvature="0" />
    <path
       d="M 972.781,831.25 C 788.613,841.332 556.227,971.449 546.418,976.98 l 11.652,20.649 c 2.352,-1.348 237.414,-132.93 416.012,-142.688 l -1.301,-23.691"
       style="fill:#fbbc09;fill-opacity:1;fill-rule:nonzero;stroke:none"
       id="path770"
       inkscape:connector-curvature="0" />
    <path
       d="m 956.223,799.762 c -224.797,0 -421.02,141.09 -429.602,147.347 l 13.965,19.153 c 2.117,-1.543 215.16,-154.492 443.148,-142.051 l 1.305,-23.672 C 975.391,800 965.77,799.762 956.223,799.762"
       style="fill:#fbbc09;fill-opacity:1;fill-rule:nonzero;stroke:none"
       id="path772"
       inkscape:connector-curvature="0" />
    <path
       d="m 924.813,758.68 c -220.247,0 -406.899,149.879 -415.657,157.031 l 14.977,18.371 c 2.32,-1.902 235.199,-188.742 478.127,-144.891 l 4.2,-23.332 c -27.53,-4.961 -54.851,-7.179 -81.647,-7.179"
       style="fill:#fbbc09;fill-opacity:1;fill-rule:nonzero;stroke:none"
       id="path774"
       inkscape:connector-curvature="0" />
    <path
       d="m 919.094,711.988 c -255.832,0 -425.52,166.524 -427.414,168.422 l 16.761,16.762 c 2.055,-2.063 209.2,-204.852 508.469,-153.031 l 4.05,-23.352 c -35.233,-6.098 -69.261,-8.801 -101.866,-8.801"
       style="fill:#fbbc09;fill-opacity:1;fill-rule:nonzero;stroke:none"
       id="path776"
       inkscape:connector-curvature="0" />
    <path
       d="m 886.188,667.84 c -263.61,0 -408.723,171.808 -410.418,173.859 l 18.289,15.09 c 1.914,-2.32 195.254,-230.258 541.651,-146.891 l 5.54,-23.046 C 985.785,673.5 934.02,667.84 886.188,667.84"
       style="fill:#fbbc09;fill-opacity:1;fill-rule:nonzero;stroke:none"
       id="path778"
       inkscape:connector-curvature="0" />
    <path
       d="m 881.168,619.988 c -245.426,0 -415.563,178.184 -417.516,180.282 l 17.293,16.199 c 2.176,-2.321 220.77,-230.699 516.012,-158.739 l 5.613,-23.031 C 960.488,624.441 919.867,619.988 881.168,619.988"
       style="fill:#fbbc09;fill-opacity:1;fill-rule:nonzero;stroke:none"
       id="path780"
       inkscape:connector-curvature="0" />
    <path
       d="m 615.836,992.898 -21.789,9.332 c 1.969,4.64 50.949,114.87 283.711,218.9 l 9.668,-21.64 C 664.441,1099.84 616.301,993.969 615.836,992.898"
       style="fill:#fbbc09;fill-opacity:1;fill-rule:nonzero;stroke:none"
       id="path782"
       inkscape:connector-curvature="0" />
    <path
       d="m 654.426,976.191 -22.203,8.289 c 1.961,5.25 50.398,129.51 255.179,197.13 l 7.434,-22.51 C 700.746,1095.01 654.867,977.371 654.426,976.191"
       style="fill:#fbbc09;fill-opacity:1;fill-rule:nonzero;stroke:none"
       id="path784"
       inkscape:connector-curvature="0" />
    <path
       d="m 684.465,963.75 -22.485,7.512 c 1.274,3.808 33.446,94.328 232.583,183.868 l 9.718,-21.62 C 714.531,1048.2 684.742,964.59 684.465,963.75"
       style="fill:#fbbc09;fill-opacity:1;fill-rule:nonzero;stroke:none"
       id="path786"
       inkscape:connector-curvature="0" />
    <path
       d="m 720.602,952.82 -23.692,0.45 c 0.137,7.57 7.106,76.78 204.129,170.27 l 10.156,-21.42 C 726.895,1014.68 720.613,953.398 720.602,952.82"
       style="fill:#fbbc09;fill-opacity:1;fill-rule:nonzero;stroke:none"
       id="path788"
       inkscape:connector-curvature="0" />
    <path
       d="m 738.461,935.559 c -1.484,10.179 -0.449,64.981 166.301,143.461 l 10.086,-21.46 C 762.441,985.832 761.977,938.77 761.988,938.301 l -23.527,-2.742"
       style="fill:#fbbc09;fill-opacity:1;fill-rule:nonzero;stroke:none"
       id="path790"
       inkscape:connector-curvature="0" />
    <path
       d="m 793.293,922.98 -23.043,5.489 c 1.375,6.761 15.023,44.461 148.359,124.021 l 12.145,-20.35 C 806.059,957.738 793.402,923.332 793.293,922.98"
       style="fill:#fbbc09;fill-opacity:1;fill-rule:nonzero;stroke:none"
       id="path792"
       inkscape:connector-curvature="0" />
    <path
       d="m 824.199,907.57 -18.183,15.211 c 2.226,2.66 55.367,65.778 118.91,98.979 l 10.976,-21 C 876.617,969.77 824.719,908.191 824.199,907.57"
       style="fill:#fbbc09;fill-opacity:1;fill-rule:nonzero;stroke:none"
       id="path794"
       inkscape:connector-curvature="0" />
    <path
       d="m 863.316,901.781 -23.195,4.867 c 0.824,4.25 10.5,42.543 94.836,75.473 l 8.617,-22.07 C 871.91,932.059 863.398,902.09 863.316,901.781"
       style="fill:#fbbc09;fill-opacity:1;fill-rule:nonzero;stroke:none"
       id="path796"
       inkscape:connector-curvature="0" />
    <path
       d="m 910.293,893.5 -18.598,14.691 c 1.317,1.688 14.071,17.207 54.535,40.981 L 958.242,928.75 C 921.785,907.32 910.406,893.641 910.293,893.5"
       style="fill:#fbbc09;fill-opacity:1;fill-rule:nonzero;stroke:none"
       id="path798"
       inkscape:connector-curvature="0" />
    <path
       d="m 1366.02,74.8008 -22.69,6.8398 c 0.68,2.3399 7.72,23.9374 42.18,60.9614 l 17.35,-16.141 c -30.54,-32.8204 -36.78,-51.4805 -36.84,-51.6602"
       style="fill:#fbbc09;fill-opacity:1;fill-rule:nonzero;stroke:none"
       id="path800"
       inkscape:connector-curvature="0" />
    <path
       d="m 1296.76,40.3594 -20.79,11.3789 c 9.27,16.9414 56.71,102.2107 79.16,118.3007 l 13.82,-19.258 c -14,-10.019 -51.71,-73.0622 -72.19,-110.4216"
       style="fill:#fbbc09;fill-opacity:1;fill-rule:nonzero;stroke:none"
       id="path802"
       inkscape:connector-curvature="0" />
    <path
       d="m 1257.52,32.0781 -22.99,5.7617 c 0.9,3.6094 22.99,89.5582 95.03,166.4882 l 17.31,-16.199 c -67.89,-72.5 -89.15,-155.2188 -89.35,-156.0509"
       style="fill:#fbbc09;fill-opacity:1;fill-rule:nonzero;stroke:none"
       id="path804"
       inkscape:connector-curvature="0" />
    <path
       d="m 1201.28,22.2695 -22.22,8.2618 c 1.99,5.3593 49.83,132.2887 133.96,197.5897 l 14.52,-18.723 C 1248.7,148.211 1201.74,23.5195 1201.28,22.2695"
       style="fill:#fbbc09;fill-opacity:1;fill-rule:nonzero;stroke:none"
       id="path806"
       inkscape:connector-curvature="0" />
    <path
       d="m 1155.51,10.9219 -22.27,8.0976 c 2.31,6.3399 57.6,156.1795 153.37,232.8205 l 14.81,-18.512 C 1210.79,160.809 1156.05,12.4219 1155.51,10.9219"
       style="fill:#fbbc09;fill-opacity:1;fill-rule:nonzero;stroke:none"
       id="path808"
       inkscape:connector-curvature="0" />
    <path
       d="m 1120.87,12.8711 -23.09,5.3477 c 1.47,6.3515 37.64,157.0622 174.83,273.3122 l 15.32,-18.09 C 1156.68,162.219 1121.21,14.3516 1120.87,12.8711"
       style="fill:#fbbc09;fill-opacity:1;fill-rule:nonzero;stroke:none"
       id="path810"
       inkscape:connector-curvature="0" />
    <path
       d="m 1067.71,8.30859 -22.24,8.20311 c 3.47,9.3867 86.13,230.6603 205.42,301.0003 l 12.04,-20.41 C 1150.84,230.988 1068.53,10.5195 1067.71,8.30859"
       style="fill:#fbbc09;fill-opacity:1;fill-rule:nonzero;stroke:none"
       id="path812"
       inkscape:connector-curvature="0" />
    <path
       d="m 1023.24,12.5898 -22.82,6.4415 c 2.4,8.4687 60.43,208.8667 223.59,328.7697 l 14.03,-19.11 C 1081.6,213.73 1023.8,14.5898 1023.24,12.5898"
       style="fill:#fbbc09;fill-opacity:1;fill-rule:nonzero;stroke:none"
       id="path814"
       inkscape:connector-curvature="0" />
    <path
       d="m 983.969,19.3711 -23.324,4.2109 c 1.789,9.8789 46.015,243.246 249.855,357.219 l 11.57,-20.692 C 1027.91,251.551 984.391,21.6719 983.969,19.3711"
       style="fill:#fbbc09;fill-opacity:1;fill-rule:nonzero;stroke:none"
       id="path816"
       inkscape:connector-curvature="0" />
    <path
       d="m 1111.33,293.121 -18.6,32.43 20.57,11.781 18.59,-32.434 -20.56,-11.777"
       style="fill:#fbbc09;fill-opacity:1;fill-rule:nonzero;stroke:none"
       id="path818"
       inkscape:connector-curvature="0" />
    <path
       d="m 1087.78,268.02 -28.3,49.371 20.56,11.781 28.3,-49.363 -20.56,-11.789"
       style="fill:#fbbc09;fill-opacity:1;fill-rule:nonzero;stroke:none"
       id="path820"
       inkscape:connector-curvature="0" />
    <path
       d="m 1062.24,241.262 -33.54,58.488 20.56,11.789 33.54,-58.488 -20.56,-11.789"
       style="fill:#fbbc09;fill-opacity:1;fill-rule:nonzero;stroke:none"
       id="path822"
       inkscape:connector-curvature="0" />
    <path
       d="m 1036.73,205.359 -47.542,82.93 20.562,11.801 47.54,-82.93 -20.56,-11.801"
       style="fill:#fbbc09;fill-opacity:1;fill-rule:nonzero;stroke:none"
       id="path824"
       inkscape:connector-curvature="0" />
    <path
       d="m 1015.33,168.832 -58.021,101.188 20.562,11.789 58.019,-101.188 -20.56,-11.789"
       style="fill:#fbbc09;fill-opacity:1;fill-rule:nonzero;stroke:none"
       id="path826"
       inkscape:connector-curvature="0" />
    <path
       d="m 999.281,119.52 -81.133,141.531 20.563,11.789 81.139,-141.52 -20.569,-11.8"
       style="fill:#fbbc09;fill-opacity:1;fill-rule:nonzero;stroke:none"
       id="path828"
       inkscape:connector-curvature="0" />
    <path
       d="M 973.523,75.9414 876.207,245.711 896.773,257.488 994.086,87.7188 973.523,75.9414"
       style="fill:#fbbc09;fill-opacity:1;fill-rule:nonzero;stroke:none"
       id="path830"
       inkscape:connector-curvature="0" />
    <path
       d="m 953.328,26.5508 -122,201.8402 20.289,12.257 L 973.613,38.7891 953.328,26.5508"
       style="fill:#fbbc09;fill-opacity:1;fill-rule:nonzero;stroke:none"
       id="path832"
       inkscape:connector-curvature="0" />
    <path
       d="M 895.66,30.8281 780.242,216.969 800.391,229.449 915.805,43.3086 895.66,30.8281"
       style="fill:#fbbc09;fill-opacity:1;fill-rule:nonzero;stroke:none"
       id="path834"
       inkscape:connector-curvature="0" />
    <path
       d="M 823.352,58.7617 737.953,207.738 758.516,219.52 843.918,70.5586 823.352,58.7617"
       style="fill:#fbbc09;fill-opacity:1;fill-rule:nonzero;stroke:none"
       id="path836"
       inkscape:connector-curvature="0" />
    <path
       d="M 758.547,88.8516 695.32,199.129 715.883,210.93 779.109,100.641 758.547,88.8516"
       style="fill:#fbbc09;fill-opacity:1;fill-rule:nonzero;stroke:none"
       id="path838"
       inkscape:connector-curvature="0" />
    <path
       d="m 1699.29,639.75 -57.58,28.469 10.5,21.261 57.58,-28.468 -10.5,-21.262"
       style="fill:#fbbc09;fill-opacity:1;fill-rule:nonzero;stroke:none"
       id="path840"
       inkscape:connector-curvature="0" />
    <path
       d="m 1709.68,586.73 -109.01,43.629 8.81,22 109,-43.621 -8.8,-22.008"
       style="fill:#fbbc09;fill-opacity:1;fill-rule:nonzero;stroke:none"
       id="path842"
       inkscape:connector-curvature="0" />
    <path
       d="m 1696.9,534.199 -133.58,71.891 11.24,20.879 133.57,-71.887 -11.23,-20.883"
       style="fill:#fbbc09;fill-opacity:1;fill-rule:nonzero;stroke:none"
       id="path844"
       inkscape:connector-curvature="0" />
    <path
       d="m 1678.63,489.738 -151.6,90.25 12.12,20.371 151.61,-90.25 -12.13,-20.371"
       style="fill:#fbbc09;fill-opacity:1;fill-rule:nonzero;stroke:none"
       id="path846"
       inkscape:connector-curvature="0" />
    <path
       d="m 1674.91,444.922 -147.52,90.25 12.38,20.219 147.52,-90.27 -12.38,-20.199"
       style="fill:#fbbc09;fill-opacity:1;fill-rule:nonzero;stroke:none"
       id="path848"
       inkscape:connector-curvature="0" />
    <path
       d="m 1665.13,406.102 -80.83,41.339 10.79,21.11 80.84,-41.34 -10.8,-21.109"
       style="fill:#fbbc09;fill-opacity:1;fill-rule:nonzero;stroke:none"
       id="path850"
       inkscape:connector-curvature="0" />
    <path
       d="m 866.395,584.91 -64.665,47.621 14.055,19.078 64.668,-47.621 -14.058,-19.078"
       style="fill:#fbbc09;fill-opacity:1;fill-rule:nonzero;stroke:none"
       id="path852"
       inkscape:connector-curvature="0" />
    <path
       d="m 810.488,572.641 -76.242,74.257 16.539,16.981 76.235,-74.27 -16.532,-16.968"
       style="fill:#fbbc09;fill-opacity:1;fill-rule:nonzero;stroke:none"
       id="path854"
       inkscape:connector-curvature="0" />
    <path
       d="M 773.902,552.441 665.84,670.77 683.352,686.762 791.41,568.43 773.902,552.441"
       style="fill:#fbbc09;fill-opacity:1;fill-rule:nonzero;stroke:none"
       id="path856"
       inkscape:connector-curvature="0" />
    <path
       d="M 726.941,533.641 573.148,713.98 591.188,729.359 744.977,549.02 726.941,533.641"
       style="fill:#fbbc09;fill-opacity:1;fill-rule:nonzero;stroke:none"
       id="path858"
       inkscape:connector-curvature="0" />
    <path
       d="M 676.539,521.23 470.465,790.07 489.273,804.488 695.352,535.648 676.539,521.23"
       style="fill:#fbbc09;fill-opacity:1;fill-rule:nonzero;stroke:none"
       id="path860"
       inkscape:connector-curvature="0" />
    <path
       d="M 632.129,508.031 453.328,744.969 472.246,759.25 651.047,522.301 632.129,508.031"
       style="fill:#fbbc09;fill-opacity:1;fill-rule:nonzero;stroke:none"
       id="path862"
       inkscape:connector-curvature="0" />
    <path
       d="m 595.238,497.461 -153.836,197.437 18.696,14.571 153.843,-197.438 -18.703,-14.57"
       style="fill:#fbbc09;fill-opacity:1;fill-rule:nonzero;stroke:none"
       id="path864"
       inkscape:connector-curvature="0" />
    <path
       d="M 554.789,486.262 437.695,623.391 455.719,638.789 572.813,501.641 554.789,486.262"
       style="fill:#fbbc09;fill-opacity:1;fill-rule:nonzero;stroke:none"
       id="path866"
       inkscape:connector-curvature="0" />
    <path
       d="m 508.66,475.5 -61.769,79.09 18.679,14.582 61.77,-79.09 -18.68,-14.582"
       style="fill:#fbbc09;fill-opacity:1;fill-rule:nonzero;stroke:none"
       id="path868"
       inkscape:connector-curvature="0" />
    <path
       d="m 301.324,1471.11 c -52.261,14.28 -60.402,38.37 -58.027,56.07 4.363,32.49 49.187,56.04 77.277,56.04 30.434,0 274.91,33.15 366.535,45.93 l 4.371,-31.3 c -13.546,-1.89 -332.066,-46.24 -370.906,-46.24 -17.316,0 -44.367,-16.87 -45.957,-28.64 -0.762,-5.66 9.781,-14.48 35.039,-21.37 l -8.332,-30.49"
       style="fill:#fbbc09;fill-opacity:1;fill-rule:nonzero;stroke:none"
       id="path870"
       inkscape:connector-curvature="0" />
    <path
       d="m 267.051,1345.05 c -29.844,7.55 -49.946,29.55 -50.035,54.74 -0.082,24.75 18.586,44.39 49.937,52.55 17.613,4.59 282.293,7.11 868.937,11.04 271.6,1.83 506.16,3.41 561.57,5.26 242.99,8.13 275.46,36.48 279.63,44.97 0.8,1.63 -0.39,4.65 -3.52,8.99 -16.87,23.34 -39.39,20.13 -39.61,20.07 l -5.49,31.13 c 1.71,0.31 42.11,6.9 70.72,-32.69 10.51,-14.54 12.62,-28.48 6.28,-41.41 -12.15,-24.79 -58.03,-54.32 -306.95,-62.65 -55.82,-1.87 -290.59,-3.43 -562.42,-5.27 -372.26,-2.5 -835.565,-5.61 -861.729,-10.15 -15.953,-4.18 -25.785,-12.34 -25.75,-21.73 0.031,-8.48 8.234,-19.66 26.188,-24.21 l -7.758,-30.64"
       style="fill:#fbbc09;fill-opacity:1;fill-rule:nonzero;stroke:none"
       id="path872"
       inkscape:connector-curvature="0" />
    <path
       d="m 471.543,840.82 c -51.273,81.489 -119.016,296.38 -43.262,423.91 42.227,71.09 120.203,103.6 231.782,96.56 345.717,-21.76 1233.547,18.6 1348.527,44.48 -0.71,0.73 -1.42,1.27 -2.05,1.71 -9.3,6.34 -27.16,3.65 -31.44,2.59 l -7.64,30.67 c 3.48,0.87 34.64,8.02 56.9,-7.15 11.07,-7.58 17.93,-19.34 19.83,-34.03 0.66,-5.11 -1.05,-10.27 -4.68,-14.16 -5.89,-6.28 -13.94,-14.88 -184.76,-28.13 -100.95,-7.82 -237.79,-15.45 -385.32,-21.44 -266.72,-10.82 -619.95,-18.1 -811.348,-6.07 -98.773,6.29 -166.949,-21.09 -202.633,-81.18 -65.683,-110.56 -7.937,-310.228 42.844,-390.92 l -26.75,-16.84"
       style="fill:#fbbc09;fill-opacity:1;fill-rule:nonzero;stroke:none"
       id="path874"
       inkscape:connector-curvature="0" />
    <path
       d="M 814.078,929.82 547.816,2003.09 c 0,0 65.215,103.28 -41.566,79.92 -110.523,-18.46 -8.617,-90.79 -8.617,-90.79 L 794.508,931.582"
       style="fill:#585556;fill-opacity:1;fill-rule:evenodd;stroke:none"
       id="path876"
       inkscape:connector-curvature="0" />
    <path
       d="M 942.973,897.871 794.758,2017.5 c 0,0 76.293,95.39 -32.418,84.06 -111.891,-6.05 -18.684,-89.28 -18.684,-89.28 L 925.117,897.629"
       style="fill:#585556;fill-opacity:1;fill-rule:evenodd;stroke:none"
       id="path878"
       inkscape:connector-curvature="0" />
    <path
       d="m 4233.77,571.16 h -506.03 v 727.9 c 0,55.88 -5.88,94.67 -17.57,116.36 -11.76,21.61 -32.93,32.46 -63.61,32.46 -56.8,0 -85.22,-50.06 -85.22,-150.17 V 571.16 h -506.02 v 727.9 c 0,55.88 -6.07,94.67 -18.27,116.36 -12.17,21.61 -33.59,32.46 -64.26,32.46 -55.92,0 -83.88,-50.06 -83.88,-150.17 V 571.16 H 2382.9 v 830.69 c 0,151.57 50.94,280.3 152.89,386.29 101.92,105.98 225.47,158.99 370.7,158.99 149.71,0 284.13,-63.17 403.2,-189.43 132.59,126.26 265.18,189.43 397.78,189.43 168.66,0 303.93,-61.34 405.88,-184.03 80.25,-95.6 120.42,-234.95 120.42,-418.05 V 571.16"
       style="fill:#231f20;fill-opacity:1;fill-rule:nonzero;stroke:none"
       id="path880"
       inkscape:connector-curvature="0" />
    <path
       d="m 5553.11,571.16 h -492.85 v 727.9 c 0,55.88 -5.86,94.67 -17.56,116.36 -11.76,21.61 -32.93,32.46 -63.61,32.46 -56.82,0 -85.22,-50.06 -85.22,-150.17 V 571.16 h -506.03 v 727.9 c 0,55.88 -6.07,94.67 -18.26,116.36 -12.17,21.61 -33.59,32.46 -64.26,32.46 -55.94,0 -83.9,-50.06 -83.9,-150.17 V 571.16 h -505.99 v 830.69 c 0,151.57 50.94,280.3 152.89,386.29 101.92,105.98 225.45,158.99 370.7,158.99 149.71,0 284.13,-63.17 403.19,-189.43 132.59,126.26 265.19,189.43 397.78,189.43 168.67,0 303.93,-61.34 405.88,-184.03 80.26,-95.6 120.43,-234.95 120.43,-418.05 l -13.19,-773.89"
       style="fill:#231f20;fill-opacity:1;fill-rule:nonzero;stroke:none"
       id="path882"
       inkscape:connector-curvature="0" />
    <path
       d="m 5650.28,1886.61 h 505.99 V 630.859 c 0,-76.668 32.04,-114.98 96.09,-114.98 63.11,0 94.71,38.312 94.71,114.98 V 1886.61 h 506 V 640.352 c 0,-174.993 -58.17,-322.692 -174.53,-443.09 C 6562.18,76.8281 6419.66,16.6289 6251,16.6289 c -192.14,0 -346.83,69.8906 -464.07,209.7111 -91.13,109.101 -136.65,260.68 -136.65,454.609 V 1886.61"
       style="fill:#231f20;fill-opacity:1;fill-rule:nonzero;stroke:none"
       id="path884"
       inkscape:connector-curvature="0" />
    <path
       d="m 7455.34,2554.33 c 0,0 -3.85,-1468.21 0,-1555.17 5.47,-123.871 112.99,-100.769 112.99,-100.769 V 573.012 l -112.99,-1.821 c 0,0 -241.14,-4.812 -355.79,96.411 -159.65,140.929 -150.22,351.668 -150.22,351.668 v 1535.06 h 506.01"
       style="fill:#231f20;fill-opacity:1;fill-rule:nonzero;stroke:none"
       id="path886"
       inkscape:connector-curvature="0" />
  </g>
</svg>
